<svg xmlns="http://www.w3.org/2000/svg" viewBox="0 0 16 16" shape-rendering="crispEdges">
  <rect width="16" height="16" fill="none"/>

  <g fill="#143820">
    <rect x="5" y="1" width="6" height="1"/>
    <rect x="3" y="2" width="2" height="1"/><rect x="11" y="2" width="2" height="1"/>
    <rect x="2" y="3" width="1" height="1"/><rect x="13" y="3" width="1" height="1"/>
    <rect x="1" y="4" width="1" height="1"/><rect x="14" y="4" width="1" height="1"/>
    <rect x="1" y="5" width="1" height="1"/><rect x="14" y="5" width="1" height="1"/>
    <rect x="1" y="6" width="1" height="1"/><rect x="14" y="6" width="1" height="1"/>
    <rect x="1" y="7" width="1" height="1"/><rect x="14" y="7" width="1" height="1"/>
    <rect x="2" y="8" width="1" height="1"/><rect x="13" y="8" width="1" height="1"/>
    <rect x="3" y="9" width="2" height="1"/><rect x="11" y="9" width="2" height="1"/>
    <rect x="5" y="10" width="2" height="1"/><rect x="9" y="10" width="2" height="1"/>
  </g>

  <g fill="#3d8a3a">
    <rect x="5" y="2" width="6" height="1"/>
    <rect x="3" y="3" width="10" height="1"/>
    <rect x="2" y="4" width="12" height="1"/>
    <rect x="2" y="5" width="12" height="1"/>
    <rect x="2" y="6" width="12" height="1"/>
    <rect x="2" y="7" width="12" height="1"/>
    <rect x="3" y="8" width="10" height="1"/>
    <rect x="5" y="9" width="6" height="1"/>
    <rect x="7" y="10" width="2" height="1"/>
  </g>

  <g fill="#7bd14a">
    <rect x="5" y="2" width="2" height="1"/>
    <rect x="3" y="3" width="3" height="1"/>
    <rect x="2" y="4" width="4" height="1"/>
    <rect x="2" y="5" width="3" height="1"/>
    <rect x="2" y="6" width="2" height="1"/>
  </g>

  <g fill="#245a30">
    <rect x="11" y="7" width="2" height="1"/>
    <rect x="10" y="8" width="3" height="1"/>
    <rect x="8" y="9" width="3" height="1"/>
  </g>

  <g fill="#1a0e05">
    <rect x="7" y="11" width="1" height="2"/>
    <rect x="6" y="13" width="2" height="1"/>
  </g>
  <g fill="#5a3a1a">
    <rect x="8" y="11" width="1" height="2"/>
    <rect x="8" y="13" width="2" height="1"/>
  </g>
</svg>
